<?xml version="1.0" standalone="no"?>
<!DOCTYPE svg PUBLIC "-//W3C//DTD SVG 20010904//EN"
 "http://www.w3.org/TR/2001/REC-SVG-20010904/DTD/svg10.dtd">
<svg version="1.0" xmlns="http://www.w3.org/2000/svg"
 width="15.000000pt" height="17.000000pt" viewBox="0 0 15.000000 17.000000"
 preserveAspectRatio="xMidYMid meet">

<g transform="translate(0.000000,17.000000) scale(0.100000,-0.100000)"
fill="#000000" stroke="none">
<path d="M4 148 c3 -13 6 -46 6 -75 0 -51 1 -53 33 -61 26 -7 83 -1 92 10 1 2
5 36 7 76 l5 72 -75 0 c-72 0 -74 -1 -68 -22z m121 -18 c-3 -5 -22 -10 -41
-10 -19 0 -34 -4 -34 -10 0 -5 16 -10 35 -10 32 0 35 -2 35 -30 0 -23 -5 -31
-24 -36 -45 -11 -64 3 -64 46 0 22 -4 44 -7 50 -4 6 15 10 50 10 35 0 54 -4
50 -10z"/>
<path d="M55 70 c3 -5 15 -10 26 -10 10 0 19 5 19 10 0 6 -12 10 -26 10 -14 0
-23 -4 -19 -10z"/>
</g>
</svg>
