<?xml version="1.0" standalone="no"?>
<!DOCTYPE svg PUBLIC "-//W3C//DTD SVG 20010904//EN"
 "http://www.w3.org/TR/2001/REC-SVG-20010904/DTD/svg10.dtd">
<svg version="1.0" xmlns="http://www.w3.org/2000/svg"
 width="155.000000pt" height="117.000000pt" viewBox="0 0 155.000000 117.000000"
 preserveAspectRatio="xMidYMid meet">
<metadata>
Created by potrace 1.16, written by Peter Selinger 2001-2019
</metadata>
<g transform="translate(0.000000,117.000000) scale(0.100000,-0.100000)"
fill="#000000" stroke="none">
<path d="M548 1142 c-71 -26 -127 -64 -134 -92 -4 -14 -12 -32 -19 -40 -18
-21 -17 -121 2 -142 11 -13 12 -24 5 -52 -14 -48 -5 -74 29 -92 16 -8 29 -21
29 -28 0 -7 7 -19 15 -26 8 -7 15 -27 15 -45 0 -32 -1 -33 -83 -59 -121 -37
-119 -33 -115 -225 l3 -161 -98 0 -99 0 7 -43 c4 -23 13 -54 20 -69 l13 -28
-64 0 c-50 0 -64 -3 -64 -15 0 -13 89 -15 740 -15 651 0 740 2 740 15 0 12
-13 15 -60 15 -33 0 -60 2 -60 5 0 2 9 19 20 37 11 18 20 48 20 66 l0 32 -130
0 c-117 0 -130 2 -130 18 0 9 -3 34 -6 54 l-7 38 106 0 c102 0 106 1 126 26
19 25 21 40 21 200 0 148 -2 174 -15 174 -13 0 -15 -26 -15 -173 0 -121 -4
-177 -12 -185 -8 -8 -48 -12 -114 -12 l-102 0 -7 64 c-4 38 -13 70 -21 77 -21
18 -142 15 -161 -3 -7 -8 -16 -32 -19 -54 -12 -91 -3 -84 -113 -84 -78 0 -101
3 -112 16 -10 12 -13 63 -13 206 1 174 2 192 19 204 14 11 64 14 203 14 163 0
183 2 172 15 -10 12 -38 15 -130 15 -114 0 -118 1 -124 23 -4 14 1 32 14 49
24 32 28 129 7 150 -8 7 -17 24 -20 38 -9 31 -65 68 -132 87 -75 22 -96 23
-147 5z m140 -34 c29 -8 56 -18 60 -23 4 -6 16 -15 27 -21 11 -6 22 -22 23
-35 2 -13 10 -27 17 -31 18 -11 17 -108 -1 -115 -8 -3 -14 -12 -14 -20 0 -29
-35 -9 -38 22 -4 38 -53 65 -83 46 -15 -8 -24 -8 -39 1 -16 10 -24 10 -40 0
-15 -9 -24 -9 -38 -1 -29 18 -82 -14 -82 -50 0 -15 -3 -30 -6 -34 -9 -9 -34 4
-34 18 0 7 -6 15 -14 18 -18 7 -19 104 -1 115 7 4 15 18 17 31 1 13 12 29 23
35 10 6 25 17 33 23 7 7 25 15 40 19 15 3 34 9 42 14 16 10 22 9 108 -12z
m-83 -208 c11 4 27 4 35 0 8 -4 24 -4 35 0 29 11 52 -5 60 -40 4 -16 11 -32
16 -35 18 -12 9 -35 -15 -35 -13 0 -35 -9 -50 -21 -23 -18 -26 -28 -26 -80 l0
-59 -48 0 c-41 0 -53 5 -90 39 -23 21 -42 47 -42 57 0 11 -3 36 -6 57 -5 30
-4 37 9 37 10 0 18 13 23 35 7 40 29 57 58 45 12 -4 30 -4 41 0z m-59 -289 c5
-6 32 -11 59 -13 l50 -3 0 -60 c0 -58 -1 -60 -27 -63 -42 -5 -100 15 -138 47
l-35 29 27 11 c16 6 30 21 34 36 7 27 14 31 30 16z m-95 -97 c35 -38 94 -65
155 -71 l54 -6 0 -53 c0 -74 21 -94 95 -94 l55 0 0 -55 0 -55 -48 0 c-48 0
-49 1 -58 37 -13 53 -39 63 -166 63 l-107 0 -3 65 c-4 87 -22 88 -26 2 -4 -90
3 -97 89 -97 l69 0 0 -35 0 -35 -99 0 c-143 0 -145 2 -149 165 -4 142 3 164
60 182 49 16 52 15 79 -13z m634 -76 c5 -5 35 -212 35 -240 0 -16 -10 -18
-101 -18 -91 0 -100 2 -95 18 3 9 10 64 17 120 7 57 18 109 24 115 10 11 111
15 120 5z m295 -309 c0 -12 -15 -36 -34 -55 l-34 -34 -557 0 c-379 0 -563 3
-577 11 -18 10 -48 65 -48 89 0 7 202 10 625 10 l625 0 0 -21z"/>
<path d="M1302 911 c-9 -5 -12 -29 -10 -82 l3 -74 75 -3 c69 -3 78 -6 108 -34
l32 -32 0 27 c0 16 8 30 20 37 17 9 20 21 20 78 0 40 -5 73 -12 80 -14 14
-215 17 -236 3z m228 -81 c0 -56 -3 -70 -15 -70 -8 0 -15 -7 -15 -15 0 -8 -4
-15 -9 -15 -5 0 -14 7 -21 15 -9 11 -33 15 -86 15 l-74 0 0 70 0 70 110 0 110
0 0 -70z"/>
</g>
</svg>
