<?xml version="1.0" standalone="no"?>
<!DOCTYPE svg PUBLIC "-//W3C//DTD SVG 20010904//EN"
 "http://www.w3.org/TR/2001/REC-SVG-20010904/DTD/svg10.dtd">
<svg version="1.0" xmlns="http://www.w3.org/2000/svg"
 width="150.000000pt" height="120.000000pt" viewBox="0 0 150.000000 120.000000"
 preserveAspectRatio="xMidYMid meet">
<metadata>
Created by potrace 1.16, written by Peter Selinger 2001-2019
</metadata>
<g transform="translate(0.000000,120.000000) scale(0.100000,-0.100000)"
fill="#000000" stroke="none">
<path d="M165 918 c-157 -35 -214 -230 -100 -344 27 -26 59 -47 84 -54 l41
-11 0 -142 c0 -98 4 -147 12 -155 9 -9 125 -12 460 -12 514 0 468 -10 468 104
l0 66 63 0 c99 0 97 -6 97 265 1 207 -1 230 -17 246 -19 19 -73 21 -605 20
-208 -1 -219 -2 -239 -22 -15 -15 -20 -30 -17 -50 6 -37 -4 -34 -34 11 -43 63
-132 96 -213 78z m1080 -283 l0 -220 -57 -3 -58 -3 0 144 c0 108 -3 148 -14
163 -14 18 -31 19 -335 22 l-321 3 0 53 c0 29 3 56 7 59 4 4 180 6 392 5 l386
-3 0 -220z m-296 16 c13 -45 60 -89 102 -98 l29 -5 0 -83 0 -83 -31 -6 c-40
-8 -97 -65 -105 -105 l-6 -31 -278 0 -277 0 -17 44 c-20 52 -42 73 -93 91 -38
13 -38 13 -41 72 l-3 60 41 12 c55 16 115 72 136 127 l17 44 257 0 257 0 12
-39z"/>
<path d="M670 590 c0 -11 -6 -20 -13 -20 -23 0 -47 -35 -47 -68 0 -35 21 -52
67 -52 73 -1 70 -47 -4 -52 -36 -2 -49 -7 -51 -20 -3 -13 3 -18 22 -18 19 0
26 -5 26 -20 0 -12 7 -20 16 -20 9 0 18 9 21 20 3 11 9 20 14 20 18 0 49 41
49 63 0 33 -30 57 -72 57 -38 0 -62 18 -50 37 4 7 30 13 57 15 36 2 50 7 50
18 0 8 -10 16 -21 18 -12 2 -24 12 -27 23 -7 25 -37 25 -37 -1z"/>
</g>
</svg>
